<svg width="860" height="420" viewBox="0 0 860 420" xmlns="http://www.w3.org/2000/svg">
  <defs>
    <style>
      @import url('https://fonts.googleapis.com/css2?family=Share+Tech+Mono&amp;family=Space+Grotesk:wght@400;600;700&amp;display=swap');
      .mono { font-family: 'Share Tech Mono', 'Courier New', monospace; }
      .sans { font-family: 'Space Grotesk', 'Segoe UI', sans-serif; }
    </style>
    <linearGradient id="bar1" x1="0%" y1="0%" x2="100%" y2="0%">
      <stop offset="0%" style="stop-color:#00ffc8"/>
      <stop offset="100%" style="stop-color:#00a8ff"/>
    </linearGradient>
    <linearGradient id="bar2" x1="0%" y1="0%" x2="100%" y2="0%">
      <stop offset="0%" style="stop-color:#ff5fa0"/>
      <stop offset="100%" style="stop-color:#ff8c42"/>
    </linearGradient>
    <linearGradient id="bar3" x1="0%" y1="0%" x2="100%" y2="0%">
      <stop offset="0%" style="stop-color:#a78bfa"/>
      <stop offset="100%" style="stop-color:#ec4899"/>
    </linearGradient>
    <linearGradient id="bar4" x1="0%" y1="0%" x2="100%" y2="0%">
      <stop offset="0%" style="stop-color:#f0c040"/>
      <stop offset="100%" style="stop-color:#ff8c42"/>
    </linearGradient>
    <linearGradient id="topglow" x1="0%" y1="0%" x2="0%" y2="100%">
      <stop offset="0%" style="stop-color:#00ffc8;stop-opacity:0.08"/>
      <stop offset="100%" style="stop-color:#00ffc8;stop-opacity:0"/>
    </linearGradient>
    <clipPath id="bar1clip"><rect x="0" y="0" width="152" height="6" rx="3"/></clipPath>
    <clipPath id="bar2clip"><rect x="0" y="0" width="119" height="6" rx="3"/></clipPath>
    <clipPath id="bar3clip"><rect x="0" y="0" width="99" height="6" rx="3"/></clipPath>
    <clipPath id="bar4clip"><rect x="0" y="0" width="146" height="6" rx="3"/></clipPath>
  </defs>

  <!-- Background -->
  <rect width="860" height="420" rx="14" fill="#0a0a0f"/>
  <!-- Top glow -->
  <rect width="860" height="160" rx="14" fill="url(#topglow)"/>
  <!-- Grid lines -->
  <g opacity="0.03" stroke="#00ffc8" stroke-width="1">
    <line x1="0" y1="40" x2="860" y2="40"/>
    <line x1="0" y1="80" x2="860" y2="80"/>
    <line x1="0" y1="120" x2="860" y2="120"/>
    <line x1="0" y1="160" x2="860" y2="160"/>
    <line x1="40" y1="0" x2="40" y2="420"/>
    <line x1="80" y1="0" x2="80" y2="420"/>
    <line x1="120" y1="0" x2="120" y2="420"/>
    <line x1="160" y1="0" x2="160" y2="420"/>
    <line x1="200" y1="0" x2="200" y2="420"/>
    <line x1="240" y1="0" x2="240" y2="420"/>
  </g>

  <!-- Outer border -->
  <rect width="860" height="420" rx="14" fill="none" stroke="#1e2a3a" stroke-width="1"/>

  <!-- Section label -->
  <text x="36" y="46" class="mono" font-size="10" fill="#64748b" letter-spacing="3">CHARACTER SHEET</text>
  <line x1="180" y1="42" x2="824" y2="42" stroke="#1e2a3a" stroke-width="1"/>

  <!-- Divider: left / right panels -->
  <line x1="430" y1="62" x2="430" y2="390" stroke="#1e2a3a" stroke-width="1"/>

  <!-- ═══ LEFT PANEL ═══ -->

  <!-- Row lines -->
  <line x1="36" y1="110" x2="414" y2="110" stroke="#0f1a2a" stroke-width="1"/>
  <line x1="36" y1="148" x2="414" y2="148" stroke="#0f1a2a" stroke-width="1"/>
  <line x1="36" y1="186" x2="414" y2="186" stroke="#0f1a2a" stroke-width="1"/>
  <line x1="36" y1="224" x2="414" y2="224" stroke="#0f1a2a" stroke-width="1"/>
  <line x1="36" y1="262" x2="414" y2="262" stroke="#0f1a2a" stroke-width="1"/>
  <line x1="36" y1="300" x2="414" y2="300" stroke="#0f1a2a" stroke-width="1"/>

  <!-- Keys -->
  <text x="36" y="94"  class="mono" font-size="10" fill="#64748b" letter-spacing="1">CLASS</text>
  <text x="36" y="132" class="mono" font-size="10" fill="#64748b" letter-spacing="1">ORIGIN</text>
  <text x="36" y="170" class="mono" font-size="10" fill="#64748b" letter-spacing="1">FOCUS</text>
  <text x="36" y="208" class="mono" font-size="10" fill="#64748b" letter-spacing="1">WEAPON</text>
  <text x="36" y="246" class="mono" font-size="10" fill="#64748b" letter-spacing="1">MOUNT</text>
  <text x="36" y="284" class="mono" font-size="10" fill="#64748b" letter-spacing="1">PASSIVE</text>
  <text x="36" y="322" class="mono" font-size="10" fill="#64748b" letter-spacing="1">ULTIMATE</text>

  <!-- Values -->
  <text x="160" y="94"  class="sans" font-size="13" font-weight="600" fill="#00ffc8">Full-Stack Warlock</text>
  <text x="160" y="132" class="sans" font-size="13" font-weight="600" fill="#e2e8f0">India 🇮🇳</text>
  <text x="160" y="170" class="sans" font-size="13" font-weight="600" fill="#e2e8f0">Web · Mobile · Cloud · AI</text>
  <text x="160" y="208" class="sans" font-size="13" font-weight="600" fill="#e2e8f0">React + Node.js</text>
  <text x="160" y="246" class="sans" font-size="13" font-weight="600" fill="#e2e8f0">Docker Container</text>
  <text x="160" y="284" class="sans" font-size="12" font-weight="600" fill="#a78bfa">console.log() vision</text>
  <text x="160" y="322" class="sans" font-size="13" font-weight="600" fill="#ff5fa0">Ship at 3 AM 🔥</text>

  <!-- Notes block -->
  <rect x="36" y="346" width="378" height="54" rx="6" fill="#0f1520" stroke="#1e2a3a" stroke-width="1"/>
  <text x="52" y="364" class="mono" font-size="11" fill="#64748b">&gt; open to collabs &amp; OSS contributions</text>
  <text x="52" y="381" class="mono" font-size="11" fill="#64748b">&gt; ask me about React · Node.js · Firebase</text>
  <text x="52" y="398" class="mono" font-size="11" fill="#64748b">&gt; 200+ commits/yr · trust git &gt; my eyes</text>

  <!-- ═══ RIGHT PANEL ═══ -->

  <!-- STAT: FRONTEND XP -->
  <text x="452" y="94"  class="mono" font-size="10" fill="#64748b" letter-spacing="1">FRONTEND XP</text>
  <text x="772" y="94" class="mono" font-size="11" font-weight="700" fill="#00ffc8" text-anchor="end">88</text>
  <rect x="452" y="102" width="177" height="6" rx="3" fill="#1e2a3a"/>
  <rect x="452" y="102" width="152" height="6" rx="3" fill="url(#bar1)"/>

  <!-- STAT: BACKEND XP -->
  <text x="452" y="135" class="mono" font-size="10" fill="#64748b" letter-spacing="1">BACKEND XP</text>
  <text x="772" y="135" class="mono" font-size="11" font-weight="700" fill="#ff5fa0" text-anchor="end">75</text>
  <rect x="452" y="143" width="177" height="6" rx="3" fill="#1e2a3a"/>
  <rect x="452" y="143" width="119" height="6" rx="3" fill="url(#bar2)"/>

  <!-- STAT: CLOUD / DEVOPS -->
  <text x="452" y="176" class="mono" font-size="10" fill="#64748b" letter-spacing="1">CLOUD / DEVOPS</text>
  <text x="772" y="176" class="mono" font-size="11" font-weight="700" fill="#a78bfa" text-anchor="end">62</text>
  <rect x="452" y="184" width="177" height="6" rx="3" fill="#1e2a3a"/>
  <rect x="452" y="184" width="99" height="6" rx="3" fill="url(#bar3)"/>

  <!-- STAT: CAFFEINE LEVEL -->
  <text x="452" y="217" class="mono" font-size="10" fill="#64748b" letter-spacing="1">CAFFEINE LEVEL</text>
  <text x="772" y="217" class="mono" font-size="11" font-weight="700" fill="#f0c040" text-anchor="end">91</text>
  <rect x="452" y="225" width="177" height="6" rx="3" fill="#1e2a3a"/>
  <rect x="452" y="225" width="146" height="6" rx="3" fill="url(#bar4)"/>

  <!-- Divider -->
  <line x1="452" y1="255" x2="824" y2="255" stroke="#1e2a3a" stroke-width="1"/>

  <!-- Spell cards -->
  <rect x="452" y="270" width="174" height="50" rx="8" fill="#0f1520" stroke="#1e2a3a" stroke-width="1"/>
  <text x="467" y="289" class="mono" font-size="9" fill="#64748b" letter-spacing="1">SPELL 1</text>
  <text x="467" y="308" class="sans" font-size="13" font-weight="600" fill="#00ffc8">Cloud Deploy</text>

  <rect x="638" y="270" width="186" height="50" rx="8" fill="#0f1520" stroke="#1e2a3a" stroke-width="1"/>
  <text x="653" y="289" class="mono" font-size="9" fill="#64748b" letter-spacing="1">SPELL 2</text>
  <text x="653" y="308" class="sans" font-size="13" font-weight="600" fill="#a78bfa">AI Integration</text>

  <rect x="452" y="334" width="174" height="50" rx="8" fill="#0f1520" stroke="#1e2a3a" stroke-width="1"/>
  <text x="467" y="353" class="mono" font-size="9" fill="#64748b" letter-spacing="1">SPELL 3</text>
  <text x="467" y="372" class="sans" font-size="13" font-weight="600" fill="#ff8c42">git push --force</text>

  <rect x="638" y="334" width="186" height="50" rx="8" fill="#ff5fa015" stroke="#ff5fa040" stroke-width="1"/>
  <text x="653" y="353" class="mono" font-size="9" fill="#ff5fa0" letter-spacing="1">ULTIMATE</text>
  <text x="653" y="372" class="sans" font-size="13" font-weight="600" fill="#ff5fa0">Ship at 3 AM 🔥</text>

  <!-- HP / XP bars at top right -->
  <text x="452" y="62" class="mono" font-size="10" fill="#64748b" letter-spacing="1">HP</text>
  <rect x="476" y="52" width="100" height="6" rx="3" fill="#1e2a3a"/>
  <rect x="476" y="52" width="100" height="6" rx="3" fill="url(#bar1)"/>
  <text x="582" y="62" class="mono" font-size="10" fill="#64748b">MAX</text>

  <text x="640" y="62" class="mono" font-size="10" fill="#64748b" letter-spacing="1">MANA</text>
  <text x="676" y="62" class="mono" font-size="12" fill="#f0c040">☕☕☕☕☕</text>
</svg>
